<svg xmlns="http://www.w3.org/2000/svg" xmlns:xlink="http://www.w3.org/1999/xlink" version="1.1" class="marks" width="897" height="523" viewBox="0 0 897 523"><g fill="none" stroke-miterlimit="10" transform="translate(53,40)"><g class="mark-group role-frame root" role="graphics-object" aria-roledescription="group mark container"><g transform="translate(0,0)"><path class="background" aria-hidden="true" d="M0,0h800v400h-800Z"/><g><g class="mark-group role-axis" role="graphics-symbol" aria-roledescription="axis" aria-label="X-axis titled 'Date' for a discrete scale with 14 values: 02-15, 02-16, 02-17, 02-18, 02-19, ending with 02-28"><g transform="translate(0.5,400.5)"><path class="background" aria-hidden="true" d="M0,0h0v0h0Z" pointer-events="none"/><g><g class="mark-rule role-axis-tick" pointer-events="none"><line transform="translate(0,0)" x2="0" y2="5" stroke="#888" stroke-width="1" opacity="1"/><line transform="translate(62,0)" x2="0" y2="5" stroke="#888" stroke-width="1" opacity="1"/><line transform="translate(123,0)" x2="0" y2="5" stroke="#888" stroke-width="1" opacity="1"/><line transform="translate(185,0)" x2="0" y2="5" stroke="#888" stroke-width="1" opacity="1"/><line transform="translate(246,0)" x2="0" y2="5" stroke="#888" stroke-width="1" opacity="1"/><line transform="translate(308,0)" x2="0" y2="5" stroke="#888" stroke-width="1" opacity="1"/><line transform="translate(369,0)" x2="0" y2="5" stroke="#888" stroke-width="1" opacity="1"/><line transform="translate(431,0)" x2="0" y2="5" stroke="#888" stroke-width="1" opacity="1"/><line transform="translate(492,0)" x2="0" y2="5" stroke="#888" stroke-width="1" opacity="1"/><line transform="translate(554,0)" x2="0" y2="5" stroke="#888" stroke-width="1" opacity="1"/><line transform="translate(615,0)" x2="0" y2="5" stroke="#888" stroke-width="1" opacity="1"/><line transform="translate(677,0)" x2="0" y2="5" stroke="#888" stroke-width="1" opacity="1"/><line transform="translate(738,0)" x2="0" y2="5" stroke="#888" stroke-width="1" opacity="1"/><line transform="translate(800,0)" x2="0" y2="5" stroke="#888" stroke-width="1" opacity="1"/></g><g class="mark-text role-axis-label" pointer-events="none"><text text-anchor="middle" transform="translate(0,16)" font-family="Arial, sans-serif" font-size="12px" fill="#3c444c" opacity="1">02-15</text><text text-anchor="middle" transform="translate(61.53846153846154,16)" font-family="Arial, sans-serif" font-size="12px" fill="#3c444c" opacity="1">02-16</text><text text-anchor="middle" transform="translate(123.07692307692308,16)" font-family="Arial, sans-serif" font-size="12px" fill="#3c444c" opacity="1">02-17</text><text text-anchor="middle" transform="translate(184.6153846153846,16)" font-family="Arial, sans-serif" font-size="12px" fill="#3c444c" opacity="1">02-18</text><text text-anchor="middle" transform="translate(246.15384615384616,16)" font-family="Arial, sans-serif" font-size="12px" fill="#3c444c" opacity="1">02-19</text><text text-anchor="middle" transform="translate(307.6923076923077,16)" font-family="Arial, sans-serif" font-size="12px" fill="#3c444c" opacity="1">02-20</text><text text-anchor="middle" transform="translate(369.2307692307692,16)" font-family="Arial, sans-serif" font-size="12px" fill="#3c444c" opacity="1">02-21</text><text text-anchor="middle" transform="translate(430.7692307692308,16)" font-family="Arial, sans-serif" font-size="12px" fill="#3c444c" opacity="1">02-22</text><text text-anchor="middle" transform="translate(492.3076923076923,16)" font-family="Arial, sans-serif" font-size="12px" fill="#3c444c" opacity="1">02-23</text><text text-anchor="middle" transform="translate(553.8461538461538,16)" font-family="Arial, sans-serif" font-size="12px" fill="#3c444c" opacity="1">02-24</text><text text-anchor="middle" transform="translate(615.3846153846154,16)" font-family="Arial, sans-serif" font-size="12px" fill="#3c444c" opacity="1">02-25</text><text text-anchor="middle" transform="translate(676.9230769230769,16)" font-family="Arial, sans-serif" font-size="12px" fill="#3c444c" opacity="1">02-26</text><text text-anchor="middle" transform="translate(738.4615384615385,16)" font-family="Arial, sans-serif" font-size="12px" fill="#3c444c" opacity="1">02-27</text><text text-anchor="middle" transform="translate(800,16)" font-family="Arial, sans-serif" font-size="12px" fill="#3c444c" opacity="1">02-28</text></g><g class="mark-rule role-axis-domain" pointer-events="none"><line transform="translate(0,0)" x2="800" y2="0" stroke="#888" stroke-width="1" opacity="1"/></g><g class="mark-text role-axis-title" pointer-events="none"><text text-anchor="middle" transform="translate(400,31)" font-family="Arial, sans-serif" font-size="12px" font-weight="bold" fill="#3c444c" opacity="1">Date</text></g></g><path class="foreground" aria-hidden="true" d="" pointer-events="none" display="none"/></g></g><g class="mark-group role-axis" role="graphics-symbol" aria-roledescription="axis" aria-label="Y-axis titled 'Views' for a linear scale with values from 0 to 0"><g transform="translate(0.5,0.5)"><path class="background" aria-hidden="true" d="M0,0h0v0h0Z" pointer-events="none"/><g><g class="mark-rule role-axis-tick" pointer-events="none"><line transform="translate(0,200)" x2="-5" y2="0" stroke="#888" stroke-width="1" opacity="1"/></g><g class="mark-text role-axis-label" pointer-events="none"><text text-anchor="end" transform="translate(-7,204)" font-family="Arial, sans-serif" font-size="12px" fill="#3c444c" opacity="1">0</text></g><g class="mark-rule role-axis-domain" pointer-events="none"><line transform="translate(0,400)" x2="0" y2="-400" stroke="#888" stroke-width="1" opacity="1"/></g><g class="mark-text role-axis-title" pointer-events="none"><text text-anchor="middle" transform="translate(-20,200) rotate(-90) translate(0,-3)" font-family="Arial, sans-serif" font-size="12px" font-weight="bold" fill="#3c444c" opacity="1">Views</text></g></g><path class="foreground" aria-hidden="true" d="" pointer-events="none" display="none"/></g></g><g class="mark-group role-scope" role="graphics-object" aria-roledescription="group mark container"><g transform="translate(0,0)"><path class="background" aria-hidden="true" d="M0,0h0v0h0Z"/><g><g class="mark-line role-mark" role="graphics-symbol" aria-roledescription="line mark container"><path d="M0,200C20.513,200,41.026,200,61.538,200C82.051,200,102.564,200,123.077,200C143.59,200,164.103,200,184.615,200C205.128,200,225.641,200,246.154,200C266.667,200,287.179,200,307.692,200C328.205,200,348.718,200,369.231,200C389.744,200,410.256,200,430.769,200C451.282,200,471.795,200,492.308,200C512.821,200,533.333,200,553.846,200C574.359,200,594.872,200,615.385,200C635.897,200,656.41,200,676.923,200C697.436,200,717.949,200,738.462,200C758.974,200,779.487,200,800,200" stroke="rgb(184, 227, 190)" stroke-width="2"/></g><g class="mark-text role-mark" role="graphics-object" aria-roledescription="text mark container"><text text-anchor="middle" transform="translate(0,190)" font-family="sans-serif" font-size="10px" fill="#888888">0</text><text text-anchor="middle" transform="translate(61.53846153846154,190)" font-family="sans-serif" font-size="10px" fill="#888888">0</text><text text-anchor="middle" transform="translate(123.07692307692308,190)" font-family="sans-serif" font-size="10px" fill="#888888">0</text><text text-anchor="middle" transform="translate(184.6153846153846,190)" font-family="sans-serif" font-size="10px" fill="#888888">0</text><text text-anchor="middle" transform="translate(246.15384615384616,190)" font-family="sans-serif" font-size="10px" fill="#888888">0</text><text text-anchor="middle" transform="translate(307.6923076923077,190)" font-family="sans-serif" font-size="10px" fill="#888888">0</text><text text-anchor="middle" transform="translate(369.2307692307692,190)" font-family="sans-serif" font-size="10px" fill="#888888">0</text><text text-anchor="middle" transform="translate(430.7692307692308,190)" font-family="sans-serif" font-size="10px" fill="#888888">0</text><text text-anchor="middle" transform="translate(492.3076923076923,190)" font-family="sans-serif" font-size="10px" fill="#888888">0</text><text text-anchor="middle" transform="translate(553.8461538461538,190)" font-family="sans-serif" font-size="10px" fill="#888888">0</text><text text-anchor="middle" transform="translate(615.3846153846154,190)" font-family="sans-serif" font-size="10px" fill="#888888">0</text><text text-anchor="middle" transform="translate(676.9230769230769,190)" font-family="sans-serif" font-size="10px" fill="#888888">0</text><text text-anchor="middle" transform="translate(738.4615384615385,190)" font-family="sans-serif" font-size="10px" fill="#888888">0</text><text text-anchor="middle" transform="translate(800,190)" font-family="sans-serif" font-size="10px" fill="#888888">0</text></g></g><path class="foreground" aria-hidden="true" d="" display="none"/></g><g transform="translate(0,0)"><path class="background" aria-hidden="true" d="M0,0h0v0h0Z"/><g><g class="mark-line role-mark" role="graphics-symbol" aria-roledescription="line mark container"><path d="M0,200C20.513,200,41.026,200,61.538,200C82.051,200,102.564,200,123.077,200C143.59,200,164.103,200,184.615,200C205.128,200,225.641,200,246.154,200C266.667,200,287.179,200,307.692,200C328.205,200,348.718,200,369.231,200C389.744,200,410.256,200,430.769,200C451.282,200,471.795,200,492.308,200C512.821,200,533.333,200,553.846,200C574.359,200,594.872,200,615.385,200C635.897,200,656.41,200,676.923,200C697.436,200,717.949,200,738.462,200C758.974,200,779.487,200,800,200" stroke="rgb(147, 213, 189)" stroke-width="2"/></g><g class="mark-text role-mark" role="graphics-object" aria-roledescription="text mark container"><text text-anchor="middle" transform="translate(0,190)" font-family="sans-serif" font-size="10px" fill="#888888">0</text><text text-anchor="middle" transform="translate(61.53846153846154,190)" font-family="sans-serif" font-size="10px" fill="#888888">0</text><text text-anchor="middle" transform="translate(123.07692307692308,190)" font-family="sans-serif" font-size="10px" fill="#888888">0</text><text text-anchor="middle" transform="translate(184.6153846153846,190)" font-family="sans-serif" font-size="10px" fill="#888888">0</text><text text-anchor="middle" transform="translate(246.15384615384616,190)" font-family="sans-serif" font-size="10px" fill="#888888">0</text><text text-anchor="middle" transform="translate(307.6923076923077,190)" font-family="sans-serif" font-size="10px" fill="#888888">0</text><text text-anchor="middle" transform="translate(369.2307692307692,190)" font-family="sans-serif" font-size="10px" fill="#888888">0</text><text text-anchor="middle" transform="translate(430.7692307692308,190)" font-family="sans-serif" font-size="10px" fill="#888888">0</text><text text-anchor="middle" transform="translate(492.3076923076923,190)" font-family="sans-serif" font-size="10px" fill="#888888">0</text><text text-anchor="middle" transform="translate(553.8461538461538,190)" font-family="sans-serif" font-size="10px" fill="#888888">0</text><text text-anchor="middle" transform="translate(615.3846153846154,190)" font-family="sans-serif" font-size="10px" fill="#888888">0</text><text text-anchor="middle" transform="translate(676.9230769230769,190)" font-family="sans-serif" font-size="10px" fill="#888888">0</text><text text-anchor="middle" transform="translate(738.4615384615385,190)" font-family="sans-serif" font-size="10px" fill="#888888">0</text><text text-anchor="middle" transform="translate(800,190)" font-family="sans-serif" font-size="10px" fill="#888888">0</text></g></g><path class="foreground" aria-hidden="true" d="" display="none"/></g><g transform="translate(0,0)"><path class="background" aria-hidden="true" d="M0,0h0v0h0Z"/><g><g class="mark-line role-mark" role="graphics-symbol" aria-roledescription="line mark container"><path d="M0,200C20.513,200,41.026,200,61.538,200C82.051,200,102.564,200,123.077,200C143.59,200,164.103,200,184.615,200C205.128,200,225.641,200,246.154,200C266.667,200,287.179,200,307.692,200C328.205,200,348.718,200,369.231,200C389.744,200,410.256,200,430.769,200C451.282,200,471.795,200,492.308,200C512.821,200,533.333,200,553.846,200C574.359,200,594.872,200,615.385,200C635.897,200,656.41,200,676.923,200C697.436,200,717.949,200,738.462,200C758.974,200,779.487,200,800,200" stroke="rgb(105, 194, 202)" stroke-width="2"/></g><g class="mark-text role-mark" role="graphics-object" aria-roledescription="text mark container"><text text-anchor="middle" transform="translate(0,190)" font-family="sans-serif" font-size="10px" fill="#888888">0</text><text text-anchor="middle" transform="translate(61.53846153846154,190)" font-family="sans-serif" font-size="10px" fill="#888888">0</text><text text-anchor="middle" transform="translate(123.07692307692308,190)" font-family="sans-serif" font-size="10px" fill="#888888">0</text><text text-anchor="middle" transform="translate(184.6153846153846,190)" font-family="sans-serif" font-size="10px" fill="#888888">0</text><text text-anchor="middle" transform="translate(246.15384615384616,190)" font-family="sans-serif" font-size="10px" fill="#888888">0</text><text text-anchor="middle" transform="translate(307.6923076923077,190)" font-family="sans-serif" font-size="10px" fill="#888888">0</text><text text-anchor="middle" transform="translate(369.2307692307692,190)" font-family="sans-serif" font-size="10px" fill="#888888">0</text><text text-anchor="middle" transform="translate(430.7692307692308,190)" font-family="sans-serif" font-size="10px" fill="#888888">0</text><text text-anchor="middle" transform="translate(492.3076923076923,190)" font-family="sans-serif" font-size="10px" fill="#888888">0</text><text text-anchor="middle" transform="translate(553.8461538461538,190)" font-family="sans-serif" font-size="10px" fill="#888888">0</text><text text-anchor="middle" transform="translate(615.3846153846154,190)" font-family="sans-serif" font-size="10px" fill="#888888">0</text><text text-anchor="middle" transform="translate(676.9230769230769,190)" font-family="sans-serif" font-size="10px" fill="#888888">0</text><text text-anchor="middle" transform="translate(738.4615384615385,190)" font-family="sans-serif" font-size="10px" fill="#888888">0</text><text text-anchor="middle" transform="translate(800,190)" font-family="sans-serif" font-size="10px" fill="#888888">0</text></g></g><path class="foreground" aria-hidden="true" d="" display="none"/></g><g transform="translate(0,0)"><path class="background" aria-hidden="true" d="M0,0h0v0h0Z"/><g><g class="mark-line role-mark" role="graphics-symbol" aria-roledescription="line mark container"><path d="M0,200C20.513,200,41.026,200,61.538,200C82.051,200,102.564,200,123.077,200C143.59,200,164.103,200,184.615,200C205.128,200,225.641,200,246.154,200C266.667,200,287.179,200,307.692,200C328.205,200,348.718,200,369.231,200C389.744,200,410.256,200,430.769,200C451.282,200,471.795,200,492.308,200C512.821,200,533.333,200,553.846,200C574.359,200,594.872,200,615.385,200C635.897,200,656.41,200,676.923,200C697.436,200,717.949,200,738.462,200C758.974,200,779.487,200,800,200" stroke="rgb(67, 165, 201)" stroke-width="2"/></g><g class="mark-text role-mark" role="graphics-object" aria-roledescription="text mark container"><text text-anchor="middle" transform="translate(0,190)" font-family="sans-serif" font-size="10px" fill="#888888">0</text><text text-anchor="middle" transform="translate(61.53846153846154,190)" font-family="sans-serif" font-size="10px" fill="#888888">0</text><text text-anchor="middle" transform="translate(123.07692307692308,190)" font-family="sans-serif" font-size="10px" fill="#888888">0</text><text text-anchor="middle" transform="translate(184.6153846153846,190)" font-family="sans-serif" font-size="10px" fill="#888888">0</text><text text-anchor="middle" transform="translate(246.15384615384616,190)" font-family="sans-serif" font-size="10px" fill="#888888">0</text><text text-anchor="middle" transform="translate(307.6923076923077,190)" font-family="sans-serif" font-size="10px" fill="#888888">0</text><text text-anchor="middle" transform="translate(369.2307692307692,190)" font-family="sans-serif" font-size="10px" fill="#888888">0</text><text text-anchor="middle" transform="translate(430.7692307692308,190)" font-family="sans-serif" font-size="10px" fill="#888888">0</text><text text-anchor="middle" transform="translate(492.3076923076923,190)" font-family="sans-serif" font-size="10px" fill="#888888">0</text><text text-anchor="middle" transform="translate(553.8461538461538,190)" font-family="sans-serif" font-size="10px" fill="#888888">0</text><text text-anchor="middle" transform="translate(615.3846153846154,190)" font-family="sans-serif" font-size="10px" fill="#888888">0</text><text text-anchor="middle" transform="translate(676.9230769230769,190)" font-family="sans-serif" font-size="10px" fill="#888888">0</text><text text-anchor="middle" transform="translate(738.4615384615385,190)" font-family="sans-serif" font-size="10px" fill="#888888">0</text><text text-anchor="middle" transform="translate(800,190)" font-family="sans-serif" font-size="10px" fill="#888888">0</text></g></g><path class="foreground" aria-hidden="true" d="" display="none"/></g><g transform="translate(0,0)"><path class="background" aria-hidden="true" d="M0,0h0v0h0Z"/><g><g class="mark-line role-mark" role="graphics-symbol" aria-roledescription="line mark container"><path d="M0,200C20.513,200,41.026,200,61.538,200C82.051,200,102.564,200,123.077,200C143.59,200,164.103,200,184.615,200C205.128,200,225.641,200,246.154,200C266.667,200,287.179,200,307.692,200C328.205,200,348.718,200,369.231,200C389.744,200,410.256,200,430.769,200C451.282,200,471.795,200,492.308,200C512.821,200,533.333,200,553.846,200C574.359,200,594.872,200,615.385,200C635.897,200,656.41,200,676.923,200C697.436,200,717.949,200,738.462,200C758.974,200,779.487,200,800,200" stroke="rgb(34, 131, 185)" stroke-width="2"/></g><g class="mark-text role-mark" role="graphics-object" aria-roledescription="text mark container"><text text-anchor="middle" transform="translate(0,190)" font-family="sans-serif" font-size="10px" fill="#888888">0</text><text text-anchor="middle" transform="translate(61.53846153846154,190)" font-family="sans-serif" font-size="10px" fill="#888888">0</text><text text-anchor="middle" transform="translate(123.07692307692308,190)" font-family="sans-serif" font-size="10px" fill="#888888">0</text><text text-anchor="middle" transform="translate(184.6153846153846,190)" font-family="sans-serif" font-size="10px" fill="#888888">0</text><text text-anchor="middle" transform="translate(246.15384615384616,190)" font-family="sans-serif" font-size="10px" fill="#888888">0</text><text text-anchor="middle" transform="translate(307.6923076923077,190)" font-family="sans-serif" font-size="10px" fill="#888888">0</text><text text-anchor="middle" transform="translate(369.2307692307692,190)" font-family="sans-serif" font-size="10px" fill="#888888">0</text><text text-anchor="middle" transform="translate(430.7692307692308,190)" font-family="sans-serif" font-size="10px" fill="#888888">0</text><text text-anchor="middle" transform="translate(492.3076923076923,190)" font-family="sans-serif" font-size="10px" fill="#888888">0</text><text text-anchor="middle" transform="translate(553.8461538461538,190)" font-family="sans-serif" font-size="10px" fill="#888888">0</text><text text-anchor="middle" transform="translate(615.3846153846154,190)" font-family="sans-serif" font-size="10px" fill="#888888">0</text><text text-anchor="middle" transform="translate(676.9230769230769,190)" font-family="sans-serif" font-size="10px" fill="#888888">0</text><text text-anchor="middle" transform="translate(738.4615384615385,190)" font-family="sans-serif" font-size="10px" fill="#888888">0</text><text text-anchor="middle" transform="translate(800,190)" font-family="sans-serif" font-size="10px" fill="#888888">0</text></g></g><path class="foreground" aria-hidden="true" d="" display="none"/></g></g><g class="mark-group role-legend" role="graphics-symbol" aria-roledescription="legend" aria-label="Symbol legend for fill color with 5 values: nundinir, skill-issues, opensourceleg, neurobionicspi---vickrey, nundinir.github.io"><g transform="translate(0,451)"><path class="background" aria-hidden="true" d="M0,0h741v12h-741Z" pointer-events="none"/><g><g class="mark-group role-legend-entry"><g transform="translate(0,0)"><path class="background" aria-hidden="true" d="M0,0h0v0h0Z" pointer-events="none"/><g><g class="mark-group role-scope" role="graphics-object" aria-roledescription="group mark container"><g transform="translate(0,0)"><path class="background" aria-hidden="true" d="M0,0h92v12h-92Z" pointer-events="none" opacity="1"/><g><g class="mark-symbol role-legend-symbol" pointer-events="none"><path transform="translate(6,6)" d="M5,0A5,5,0,1,1,-5,0A5,5,0,1,1,5,0" fill="rgb(184, 227, 190)" stroke-width="1.5" opacity="1"/></g><g class="mark-text role-legend-label" pointer-events="none"><text text-anchor="start" transform="translate(16,10)" font-family="Arial, sans-serif" font-size="12px" fill="#bfc6cc" opacity="1">nundinir</text></g></g><path class="foreground" aria-hidden="true" d="" pointer-events="none" display="none"/></g><g transform="translate(102,0)"><path class="background" aria-hidden="true" d="M0,0h131v12h-131Z" pointer-events="none" opacity="1"/><g><g class="mark-symbol role-legend-symbol" pointer-events="none"><path transform="translate(6,6)" d="M5,0A5,5,0,1,1,-5,0A5,5,0,1,1,5,0" fill="rgb(147, 213, 189)" stroke-width="1.5" opacity="1"/></g><g class="mark-text role-legend-label" pointer-events="none"><text text-anchor="start" transform="translate(16,10)" font-family="Arial, sans-serif" font-size="12px" fill="#bfc6cc" opacity="1">skill-issues</text></g></g><path class="foreground" aria-hidden="true" d="" pointer-events="none" display="none"/></g><g transform="translate(243,0)"><path class="background" aria-hidden="true" d="M0,0h140v12h-140Z" pointer-events="none" opacity="1"/><g><g class="mark-symbol role-legend-symbol" pointer-events="none"><path transform="translate(6,6)" d="M5,0A5,5,0,1,1,-5,0A5,5,0,1,1,5,0" fill="rgb(105, 194, 202)" stroke-width="1.5" opacity="1"/></g><g class="mark-text role-legend-label" pointer-events="none"><text text-anchor="start" transform="translate(16,10)" font-family="Arial, sans-serif" font-size="12px" fill="#bfc6cc" opacity="1">opensourceleg</text></g></g><path class="foreground" aria-hidden="true" d="" pointer-events="none" display="none"/></g><g transform="translate(393,0)"><path class="background" aria-hidden="true" d="M0,0h169v12h-169Z" pointer-events="none" opacity="1"/><g><g class="mark-symbol role-legend-symbol" pointer-events="none"><path transform="translate(6,6)" d="M5,0A5,5,0,1,1,-5,0A5,5,0,1,1,5,0" fill="rgb(67, 165, 201)" stroke-width="1.5" opacity="1"/></g><g class="mark-text role-legend-label" pointer-events="none"><text text-anchor="start" transform="translate(16,10)" font-family="Arial, sans-serif" font-size="12px" fill="#bfc6cc" opacity="1">neurobionicspi-…</text></g></g><path class="foreground" aria-hidden="true" d="" pointer-events="none" display="none"/></g><g transform="translate(572,0)"><path class="background" aria-hidden="true" d="M0,0h169v12h-169Z" pointer-events="none" opacity="1"/><g><g class="mark-symbol role-legend-symbol" pointer-events="none"><path transform="translate(6,6)" d="M5,0A5,5,0,1,1,-5,0A5,5,0,1,1,5,0" fill="rgb(34, 131, 185)" stroke-width="1.5" opacity="1"/></g><g class="mark-text role-legend-label" pointer-events="none"><text text-anchor="start" transform="translate(16,10)" font-family="Arial, sans-serif" font-size="12px" fill="#bfc6cc" opacity="1">nundinir.github…</text></g></g><path class="foreground" aria-hidden="true" d="" pointer-events="none" display="none"/></g></g></g><path class="foreground" aria-hidden="true" d="" pointer-events="none" display="none"/></g></g></g><path class="foreground" aria-hidden="true" d="" pointer-events="none" display="none"/></g></g><g class="mark-group role-title"><g transform="translate(395.5,-20)"><path class="background" aria-hidden="true" d="M0,0h0v0h0Z" pointer-events="none"/><g><g class="mark-text role-title-text" role="graphics-symbol" aria-roledescription="title" aria-label="Title text 'Repository Views Over Time'" pointer-events="none"><text text-anchor="middle" transform="translate(0,13)" font-family="Arial, sans-serif" font-size="16px" font-weight="bold" fill="#bfc6cc" opacity="1">Repository Views Over Time</text></g></g><path class="foreground" aria-hidden="true" d="" pointer-events="none" display="none"/></g></g></g><path class="foreground" aria-hidden="true" d="" display="none"/></g></g></g></svg>